<svg width="533" height="133" viewBox="0 0 533 133" fill="none" xmlns="http://www.w3.org/2000/svg">
<g filter="url(#filter0_d_6_98)">
<path d="M8 16C8 9.37258 13.3726 4 20 4H221.537H410C416.627 4 422 9.37258 422 16V109C422 115.627 416.627 121 410 121H20C13.3726 121 8 115.627 8 109V16Z" fill="url(#paint0_linear_6_98)" fill-opacity="0.42" style="mix-blend-mode:multiply" shape-rendering="crispEdges"/>
</g>
<g filter="url(#filter1_d_6_98)">
<path d="M26.277 47.78L17.577 65.78H35.037L26.277 47.78ZM21.177 43.52H26.517C27.157 43.52 27.597 43.76 27.837 44.24L44.817 78.56C44.897 78.72 44.937 78.9 44.937 79.1C44.937 79.78 44.617 80.24 43.977 80.48C43.737 80.56 43.517 80.6 43.317 80.6C42.637 80.6 42.177 80.34 41.937 79.82L36.357 68.54H16.257L10.677 79.82C10.317 80.62 9.63695 80.84 8.63695 80.48C7.99695 80.24 7.67695 79.8 7.67695 79.16C7.67695 79 7.71695 78.82 7.79695 78.62L23.757 46.34H21.177C20.777 46.34 20.437 46.22 20.157 45.98C19.917 45.7 19.797 45.36 19.797 44.96C19.797 44.56 19.917 44.22 20.157 43.94C20.437 43.66 20.777 43.52 21.177 43.52ZM47.5812 43.52H64.2612C68.4612 43.52 71.5612 44.28 73.5612 45.8C75.6012 47.28 76.6212 49.74 76.6212 53.18C76.6212 56.58 75.2412 59 72.4812 60.44C76.6412 61.92 78.7212 65 78.7212 69.68C78.7212 76.56 74.2812 80 65.4012 80H52.4412C51.9612 80 51.5612 79.88 51.2412 79.64C50.9212 79.36 50.7612 79.02 50.7612 78.62V46.34H47.5812C47.1812 46.34 46.8412 46.22 46.5612 45.98C46.3212 45.7 46.2012 45.36 46.2012 44.96C46.2012 44.56 46.3212 44.22 46.5612 43.94C46.8412 43.66 47.1812 43.52 47.5812 43.52ZM54.0012 62.18V77.18H65.4012C68.8012 77.18 71.3212 76.58 72.9612 75.38C74.6012 74.18 75.4212 72.28 75.4212 69.68C75.4212 64.68 72.4012 62.18 66.3612 62.18H54.0012ZM54.0012 46.34V59.36H65.6412C68.0012 59.36 69.8812 58.8 71.2812 57.68C72.6812 56.56 73.3812 54.92 73.3812 52.76C73.3812 50.56 72.6412 48.94 71.1612 47.9C69.6812 46.86 67.3812 46.34 64.2612 46.34H54.0012ZM90.7995 46.34V77.18H99.9795C104.619 77.18 108.239 75.84 110.839 73.16C113.479 70.44 114.799 66.68 114.799 61.88C114.799 57.04 113.459 53.24 110.779 50.48C108.099 47.72 104.499 46.34 99.9795 46.34H90.7995ZM87.5595 46.34H83.9595C83.5595 46.34 83.2195 46.22 82.9395 45.98C82.6995 45.7 82.5795 45.36 82.5795 44.96C82.5795 44.56 82.6995 44.22 82.9395 43.94C83.2195 43.66 83.5595 43.52 83.9595 43.52H99.9795C105.419 43.52 109.779 45.18 113.059 48.5C116.379 51.78 118.039 56.22 118.039 61.82C118.039 67.42 116.419 71.86 113.179 75.14C109.939 78.38 105.539 80 99.9795 80H89.1195C88.0795 80 87.5595 79.54 87.5595 78.62V46.34ZM128.673 75.26C125.313 71.7 123.633 67.2 123.633 61.76C123.633 56.32 125.313 51.82 128.673 48.26C132.073 44.7 136.433 42.92 141.753 42.92C147.073 42.92 151.413 44.7 154.773 48.26C158.173 51.82 159.873 56.34 159.873 61.82C159.873 67.26 158.173 71.76 154.773 75.32C151.413 78.84 147.073 80.6 141.753 80.6C136.433 80.6 132.073 78.82 128.673 75.26ZM131.013 50.3C128.253 53.3 126.873 57.12 126.873 61.76C126.873 66.4 128.253 70.24 131.013 73.28C133.773 76.28 137.353 77.78 141.753 77.78C146.153 77.78 149.733 76.28 152.493 73.28C155.253 70.24 156.633 66.4 156.633 61.76C156.633 57.12 155.253 53.3 152.493 50.3C149.733 47.26 146.153 45.74 141.753 45.74C137.353 45.74 133.773 47.26 131.013 50.3ZM189.89 43.52H195.11C196.15 43.52 196.67 44 196.67 44.96V68.6C196.67 72.28 195.27 75.2 192.47 77.36C189.71 79.52 186.29 80.6 182.21 80.6C178.13 80.6 174.77 79.48 172.13 77.24C169.49 75 168.17 72.12 168.17 68.6V46.34H164.63C164.23 46.34 163.89 46.22 163.61 45.98C163.37 45.7 163.25 45.36 163.25 44.96C163.25 44.56 163.37 44.22 163.61 43.94C163.89 43.66 164.23 43.52 164.63 43.52H169.85C170.25 43.52 170.61 43.66 170.93 43.94C171.25 44.22 171.41 44.56 171.41 44.96V68.6C171.41 71.32 172.43 73.54 174.47 75.26C176.51 76.94 179.15 77.78 182.39 77.78C185.63 77.78 188.27 76.94 190.31 75.26C192.39 73.54 193.43 71.32 193.43 68.6V46.34H189.89C189.49 46.34 189.15 46.22 188.87 45.98C188.63 45.7 188.51 45.36 188.51 44.96C188.51 44.56 188.63 44.22 188.87 43.94C189.15 43.66 189.49 43.52 189.89 43.52ZM207.559 46.34H204.019C203.619 46.34 203.279 46.22 202.999 45.98C202.759 45.7 202.639 45.36 202.639 44.96C202.639 44.56 202.759 44.22 202.999 43.94C203.279 43.66 203.619 43.52 204.019 43.52H230.539C231.579 43.52 232.099 44 232.099 44.96V49.88C232.099 50.28 231.939 50.62 231.619 50.9C231.299 51.14 230.919 51.26 230.479 51.26C230.039 51.26 229.659 51.14 229.339 50.9C229.019 50.62 228.859 50.28 228.859 49.88V46.34H210.799V60.26H225.979V58.04C225.979 57.64 226.119 57.32 226.399 57.08C226.719 56.8 227.099 56.66 227.539 56.66C227.979 56.66 228.339 56.8 228.619 57.08C228.939 57.32 229.099 57.64 229.099 58.04V65.36C229.099 65.76 228.939 66.1 228.619 66.38C228.339 66.62 227.979 66.74 227.539 66.74C227.099 66.74 226.719 66.62 226.399 66.38C226.119 66.1 225.979 65.76 225.979 65.36V63.08H210.799V79.22C210.799 79.62 210.639 79.94 210.319 80.18C209.999 80.46 209.619 80.6 209.179 80.6C208.739 80.6 208.359 80.46 208.039 80.18C207.719 79.94 207.559 79.62 207.559 79.22V46.34ZM236.305 43.52H264.445C265.485 43.52 266.005 44 266.005 44.96V49.88C266.005 50.28 265.845 50.62 265.525 50.9C265.205 51.14 264.825 51.26 264.385 51.26C263.945 51.26 263.565 51.14 263.245 50.9C262.925 50.62 262.765 50.28 262.765 49.88V46.34H243.085V60.26H260.005V58.04C260.005 57.64 260.145 57.32 260.425 57.08C260.745 56.8 261.125 56.66 261.565 56.66C262.005 56.66 262.365 56.8 262.645 57.08C262.965 57.32 263.125 57.64 263.125 58.04V65.36C263.125 65.76 262.965 66.1 262.645 66.38C262.365 66.62 262.005 66.74 261.565 66.74C261.125 66.74 260.745 66.62 260.425 66.38C260.145 66.1 260.005 65.76 260.005 65.36V63.08H243.085V77.18H264.385C264.865 77.18 265.245 77.32 265.525 77.6C265.845 77.84 266.005 78.16 266.005 78.56C266.005 78.96 265.845 79.3 265.525 79.58C265.205 79.86 264.825 80 264.385 80H241.345C240.345 80 239.845 79.56 239.845 78.68V46.34H236.305C235.905 46.34 235.565 46.22 235.285 45.98C235.045 45.7 234.925 45.36 234.925 44.96C234.925 44.56 235.045 44.22 235.285 43.94C235.565 43.66 235.905 43.52 236.305 43.52ZM277.889 46.34V63.26H289.889C296.489 63.26 299.789 60.42 299.789 54.74C299.789 51.74 298.949 49.6 297.269 48.32C295.629 47 293.169 46.34 289.889 46.34H277.889ZM277.889 66.02V79.22C277.889 79.62 277.729 79.94 277.409 80.18C277.089 80.46 276.709 80.6 276.269 80.6C275.829 80.6 275.449 80.46 275.129 80.18C274.809 79.94 274.649 79.62 274.649 79.22V46.34H271.049C270.649 46.34 270.309 46.22 270.029 45.98C269.789 45.7 269.669 45.36 269.669 44.96C269.669 44.56 269.789 44.22 270.029 43.94C270.309 43.66 270.649 43.52 271.049 43.52H289.889C298.649 43.52 303.029 47.26 303.029 54.74C303.029 60.14 300.649 63.62 295.889 65.18L303.629 78.56C303.709 78.72 303.749 78.9 303.749 79.1C303.749 79.66 303.509 80.06 303.029 80.3C302.589 80.54 302.189 80.66 301.829 80.66C301.469 80.66 301.149 80.44 300.869 80L292.649 65.9C291.609 65.98 290.689 66.02 289.889 66.02H277.889ZM312.677 79.22V46.34H309.077C308.677 46.34 308.337 46.22 308.057 45.98C307.817 45.7 307.697 45.36 307.697 44.96C307.697 44.56 307.817 44.22 308.057 43.94C308.337 43.66 308.677 43.52 309.077 43.52H314.057C314.697 43.52 315.217 43.76 315.617 44.24L330.677 64.82L345.677 44.3C346.037 43.78 346.537 43.52 347.177 43.52H352.277C352.677 43.52 352.997 43.66 353.237 43.94C353.517 44.22 353.657 44.56 353.657 44.96C353.657 45.36 353.517 45.7 353.237 45.98C352.997 46.22 352.677 46.34 352.277 46.34H348.677V76.28C348.677 76.88 349.137 77.18 350.057 77.18H352.277C352.677 77.18 352.997 77.32 353.237 77.6C353.517 77.88 353.657 78.22 353.657 78.62C353.657 79.02 353.517 79.36 353.237 79.64C352.997 79.88 352.677 80 352.277 80H350.057C346.977 80 345.437 78.76 345.437 76.28V49.82L331.997 68.18C331.677 68.62 331.237 68.84 330.677 68.84C330.117 68.84 329.677 68.62 329.357 68.18L315.917 49.82V79.22C315.917 79.62 315.757 79.94 315.437 80.18C315.117 80.46 314.737 80.6 314.297 80.6C313.857 80.6 313.477 80.46 313.157 80.18C312.837 79.94 312.677 79.62 312.677 79.22ZM374.324 47.78L365.624 65.78H383.084L374.324 47.78ZM369.224 43.52H374.564C375.204 43.52 375.644 43.76 375.884 44.24L392.864 78.56C392.944 78.72 392.984 78.9 392.984 79.1C392.984 79.78 392.664 80.24 392.024 80.48C391.784 80.56 391.564 80.6 391.364 80.6C390.684 80.6 390.224 80.34 389.984 79.82L384.404 68.54H364.304L358.724 79.82C358.364 80.62 357.684 80.84 356.684 80.48C356.044 80.24 355.724 79.8 355.724 79.16C355.724 79 355.764 78.82 355.844 78.62L371.804 46.34H369.224C368.824 46.34 368.484 46.22 368.204 45.98C367.964 45.7 367.844 45.36 367.844 44.96C367.844 44.56 367.964 44.22 368.204 43.94C368.484 43.66 368.824 43.52 369.224 43.52ZM405.427 79.22V46.34H393.547V49.88C393.547 50.28 393.387 50.62 393.067 50.9C392.747 51.14 392.367 51.26 391.927 51.26C391.487 51.26 391.107 51.14 390.787 50.9C390.467 50.62 390.307 50.28 390.307 49.88V44.96C390.307 44.56 390.467 44.22 390.787 43.94C391.107 43.66 391.467 43.52 391.867 43.52H422.167C422.607 43.52 422.987 43.66 423.307 43.94C423.627 44.22 423.787 44.56 423.787 44.96V49.88C423.787 50.28 423.627 50.62 423.307 50.9C422.987 51.14 422.607 51.26 422.167 51.26C421.727 51.26 421.347 51.14 421.027 50.9C420.707 50.62 420.547 50.28 420.547 49.88V46.34H408.667V79.22C408.667 79.62 408.507 79.94 408.187 80.18C407.867 80.46 407.487 80.6 407.047 80.6C406.607 80.6 406.227 80.46 405.907 80.18C405.587 79.94 405.427 79.62 405.427 79.22Z" fill="#09090A"/>
</g>
<path d="M449.687 16.1329C412.771 36.457 412.771 87.543 449.687 107.867C486.604 128.191 533 102.648 533 62C533 21.3518 486.604 -4.1912 449.687 16.1329ZM449.909 64.4758L472.152 85.7099C477.819 91.7419 469.107 99.3394 463.387 94.0801L434.131 66.1416C431.723 63.8414 431.723 60.1132 434.131 57.813L463.387 29.8744C469.418 24.5883 477.769 32.5625 472.148 38.2446L449.907 59.4797C448.464 60.8597 448.464 63.0971 449.909 64.4758ZM491.105 94.0574C485.016 99.5072 476.813 91.0189 482.34 85.6872L504.584 64.4532C506.029 63.0744 506.029 60.837 504.585 59.457L482.34 38.2219C476.635 32.7736 485.4 24.4034 491.105 29.8517L520.362 57.7903C522.769 60.0905 522.769 63.8187 520.362 66.1189L491.105 94.0574Z" fill="black" fill-opacity="0.28"/>
<defs>
<filter id="filter0_d_6_98" x="0" y="0" width="430" height="133" filterUnits="userSpaceOnUse" color-interpolation-filters="sRGB">
<feFlood flood-opacity="0" result="BackgroundImageFix"/>
<feColorMatrix in="SourceAlpha" type="matrix" values="0 0 0 0 0 0 0 0 0 0 0 0 0 0 0 0 0 0 127 0" result="hardAlpha"/>
<feOffset dy="4"/>
<feGaussianBlur stdDeviation="4"/>
<feComposite in2="hardAlpha" operator="out"/>
<feColorMatrix type="matrix" values="0 0 0 0 0 0 0 0 0 0 0 0 0 0 0 0 0 0 0.25 0"/>
<feBlend mode="normal" in2="BackgroundImageFix" result="effect1_dropShadow_6_98"/>
<feBlend mode="normal" in="SourceGraphic" in2="effect1_dropShadow_6_98" result="shape"/>
</filter>
<filter id="filter1_d_6_98" x="3.67696" y="42.92" width="424.11" height="46.1" filterUnits="userSpaceOnUse" color-interpolation-filters="sRGB">
<feFlood flood-opacity="0" result="BackgroundImageFix"/>
<feColorMatrix in="SourceAlpha" type="matrix" values="0 0 0 0 0 0 0 0 0 0 0 0 0 0 0 0 0 0 127 0" result="hardAlpha"/>
<feOffset dy="4"/>
<feGaussianBlur stdDeviation="2"/>
<feComposite in2="hardAlpha" operator="out"/>
<feColorMatrix type="matrix" values="0 0 0 0 0 0 0 0 0 0 0 0 0 0 0 0 0 0 0.25 0"/>
<feBlend mode="normal" in2="BackgroundImageFix" result="effect1_dropShadow_6_98"/>
<feBlend mode="normal" in="SourceGraphic" in2="effect1_dropShadow_6_98" result="shape"/>
</filter>
<linearGradient id="paint0_linear_6_98" x1="215" y1="4" x2="215" y2="121" gradientUnits="userSpaceOnUse">
<stop offset="0.375" stop-color="#7ACEB2"/>
<stop offset="0.723958" stop-color="#7ACEB2" stop-opacity="0.98"/>
</linearGradient>
</defs>
</svg>
